<svg width="41" height="41" viewBox="0 0 41 41" fill="none" xmlns="http://www.w3.org/2000/svg">
<path fill-rule="evenodd" clip-rule="evenodd" d="M0.916992 8.75008C0.916992 6.67255 1.74229 4.68011 3.21132 3.21108C4.68036 1.74204 6.6728 0.916748 8.75033 0.916748H32.2503C34.3279 0.916748 36.3203 1.74204 37.7893 3.21108C39.2584 4.68011 40.0837 6.67255 40.0837 8.75008V32.2501C40.0837 34.3276 39.2584 36.32 37.7893 37.7891C36.3203 39.2581 34.3279 40.0834 32.2503 40.0834H8.75033C6.6728 40.0834 4.68036 39.2581 3.21132 37.7891C1.74229 36.32 0.916992 34.3276 0.916992 32.2501V8.75008ZM8.75033 4.83341C7.71156 4.83341 6.71534 5.24606 5.98082 5.98058C5.24631 6.7151 4.83366 7.71132 4.83366 8.75008V32.2501C4.83366 33.2888 5.24631 34.2851 5.98082 35.0196C6.71534 35.7541 7.71156 36.1667 8.75033 36.1667H20.5003V22.4584H18.542C18.0226 22.4584 17.5245 22.2521 17.1572 21.8848C16.79 21.5176 16.5837 21.0195 16.5837 20.5001C16.5837 19.9807 16.79 19.4826 17.1572 19.1153C17.5245 18.7481 18.0226 18.5417 18.542 18.5417H20.5003V15.6042C20.5003 13.7864 21.2225 12.043 22.5079 10.7576C23.7933 9.47222 25.5367 8.75008 27.3545 8.75008H28.5295C29.0489 8.75008 29.547 8.95641 29.9142 9.32366C30.2815 9.69092 30.4878 10.189 30.4878 10.7084C30.4878 11.2278 30.2815 11.7259 29.9142 12.0932C29.547 12.4604 29.0489 12.6667 28.5295 12.6667H27.3545C26.9687 12.6667 26.5868 12.7427 26.2304 12.8904C25.874 13.038 25.5501 13.2543 25.2774 13.5271C25.0046 13.7999 24.7882 14.1237 24.6406 14.4801C24.493 14.8365 24.417 15.2185 24.417 15.6042V18.5417H28.5295C29.0489 18.5417 29.547 18.7481 29.9142 19.1153C30.2815 19.4826 30.4878 19.9807 30.4878 20.5001C30.4878 21.0195 30.2815 21.5176 29.9142 21.8848C29.547 22.2521 29.0489 22.4584 28.5295 22.4584H24.417V36.1667H32.2503C33.2891 36.1667 34.2853 35.7541 35.0198 35.0196C35.7543 34.2851 36.167 33.2888 36.167 32.2501V8.75008C36.167 7.71132 35.7543 6.7151 35.0198 5.98058C34.2853 5.24606 33.2891 4.83341 32.2503 4.83341H8.75033Z" fill="black"/>
</svg>
