<svg width="41" height="40" viewBox="0 0 41 40" fill="none" xmlns="http://www.w3.org/2000/svg">
<path fill-rule="evenodd" clip-rule="evenodd" d="M0.916992 8.62341C0.916992 6.56828 1.74229 4.59731 3.21132 3.14411C4.68036 1.69091 6.6728 0.874512 8.75033 0.874512H32.2503C34.3279 0.874512 36.3203 1.69091 37.7893 3.14411C39.2584 4.59731 40.0837 6.56828 40.0837 8.62341V31.8701C40.0837 33.9252 39.2584 35.8962 37.7893 37.3494C36.3203 38.8026 34.3279 39.619 32.2503 39.619H8.75033C6.6728 39.619 4.68036 38.8026 3.21132 37.3494C1.74229 35.8962 0.916992 33.9252 0.916992 31.8701V8.62341ZM8.75033 4.74896C7.71156 4.74896 6.71534 5.15716 5.98082 5.88376C5.24631 6.61036 4.83366 7.59584 4.83366 8.62341V31.8701C4.83366 32.8977 5.24631 33.8832 5.98082 34.6098C6.71534 35.3364 7.71156 35.7446 8.75033 35.7446H32.2503C33.2891 35.7446 34.2853 35.3364 35.0198 34.6098C35.7543 33.8832 36.167 32.8977 36.167 31.8701V8.62341C36.167 7.59584 35.7543 6.61036 35.0198 5.88376C34.2853 5.15716 33.2891 4.74896 32.2503 4.74896H8.75033ZM20.5003 14.4351C18.9422 14.4351 17.4478 15.0474 16.3461 16.1373C15.2443 17.2272 14.6253 18.7054 14.6253 20.2468C14.6253 21.7881 15.2443 23.2663 16.3461 24.3562C17.4478 25.4461 18.9422 26.0584 20.5003 26.0584C22.0585 26.0584 23.5528 25.4461 24.6546 24.3562C25.7564 23.2663 26.3753 21.7881 26.3753 20.2468C26.3753 18.7054 25.7564 17.2272 24.6546 16.1373C23.5528 15.0474 22.0585 14.4351 20.5003 14.4351ZM10.7087 20.2468C10.7087 17.6778 11.7403 15.2141 13.5766 13.3976C15.4129 11.5811 17.9034 10.5606 20.5003 10.5606C23.0972 10.5606 25.5878 11.5811 27.4241 13.3976C29.2604 15.2141 30.292 17.6778 30.292 20.2468C30.292 22.8157 29.2604 25.2794 27.4241 27.0959C25.5878 28.9124 23.0972 29.9329 20.5003 29.9329C17.9034 29.9329 15.4129 28.9124 13.5766 27.0959C11.7403 25.2794 10.7087 22.8157 10.7087 20.2468ZM31.2712 12.4979C32.0502 12.4979 32.7974 12.1917 33.3483 11.6468C33.8992 11.1018 34.2087 10.3627 34.2087 9.59202C34.2087 8.82135 33.8992 8.08224 33.3483 7.53729C32.7974 6.99234 32.0502 6.68619 31.2712 6.68619C30.4921 6.68619 29.7449 6.99234 29.194 7.53729C28.6431 8.08224 28.3337 8.82135 28.3337 9.59202C28.3337 10.3627 28.6431 11.1018 29.194 11.6468C29.7449 12.1917 30.4921 12.4979 31.2712 12.4979Z" fill="black"/>
</svg>
